<svg width="306" height="276" viewBox="0 0 306 276" fill="none" xmlns="http://www.w3.org/2000/svg">
<path d="M158.224 53.9274C161.859 55.1089 165.513 56.4777 168.861 58.3421C171.749 59.9505 174.717 62.2356 174.832 65.8681C174.945 69.4678 171.808 72.4205 169.24 74.4452C165.144 77.6736 160.279 79.6506 155.701 82.0553C148.663 85.7522 140.17 91.5987 140.712 100.702C141.181 108.579 149.277 112.3 155.386 115.229" stroke="#E8E8E8" stroke-width="9" stroke-linecap="round"/>
<path d="M182.631 94.4165C183.001 91.4558 184.537 88.4619 186.1 85.9866C192.108 76.4669 201.734 70.5079 213.071 70.1252C222.316 69.8131 230.596 73.1729 237.215 79.5642C240.774 82.9999 243.68 86.9716 246.959 90.6535C248.754 92.6682 250.426 94.4186 252.614 95.9932C256.272 98.6242 254.513 96.8418 258.311 99.1466" stroke="#E8E8E8" stroke-width="9" stroke-linecap="round"/>
<path d="M233.526 126.202C231.047 128.154 228.576 130.129 226.273 132.288C224.353 134.089 221.393 136.789 221.974 139.783C222.831 144.194 229.068 145.505 232.685 146.3C234.499 146.698 236.331 146.987 238.151 147.351C238.869 147.495 240.006 147.593 240.516 148.234C241.526 149.503 240.592 152.525 240.148 153.784C238.071 159.668 233.207 164.02 228.102 167.322C222.549 170.915 216.233 173.55 209.708 174.722C206.655 175.27 204.08 174.914 201.173 174.07" stroke="#E8E8E8" stroke-width="9" stroke-linecap="round"/>
<path d="M188.685 126.392C193.039 124.98 197.48 124.043 201.877 122.807C204.353 122.111 205.631 120.905 206.155 118.319C207.215 113.088 204.204 108.716 200.216 105.537C197.543 103.407 194.434 101.854 191.103 101.06C187.757 100.262 184.321 100.571 180.928 100.66" stroke="#E8E8E8" stroke-width="9" stroke-linecap="round"/>
<path d="M166.927 161.961C168.29 169.359 158.573 172.512 153.147 173.282C143.697 174.623 133.918 173.744 124.63 171.716C120.607 170.837 116.549 169.709 112.815 167.942C110.767 166.973 109.32 165.704 107.518 164.421" stroke="#E8E8E8" stroke-width="9" stroke-linecap="round"/>
<path d="M124.546 113.337C123.42 107.704 119.854 102.333 116.158 98.0744C113.928 95.5047 111.371 93.1745 108.338 91.5784C104.296 89.4521 99.7337 88.8892 95.2407 88.6774C91.862 88.5181 88.4752 88.6178 85.0974 88.7299C84.154 88.7612 81.1384 89.4175 80.7143 87.9521C80.2652 86.4009 80.5866 84.4337 80.7983 82.8962C81.1718 80.1845 81.8703 77.5723 82.5432 74.9287" stroke="#E8E8E8" stroke-width="9" stroke-linecap="round"/>
<path d="M205.713 40.3048C207.922 39.965 210.503 37.7296 210.612 35.4487C210.704 33.5035 209.633 31.7218 208.467 30.2667C206.221 27.4616 203.275 25.3498 200.058 23.7812C195.78 21.695 191.471 20.8922 186.793 21.0063" stroke="#E8E8E8" stroke-width="9" stroke-linecap="round"/>
<path d="M128.519 10.2218C125.584 8.65913 122.279 7.61943 119.08 6.77413C112.311 4.98529 104.421 3.65012 97.5216 5.53381C93.7228 6.57095 90.8002 8.95853 89.3544 12.6499C87.0461 18.5436 88.9842 24.7259 92.9913 29.3942C97.5476 34.7024 103.811 38.0809 109.998 41.0827C114.382 43.2095 120.815 45.0765 123.295 49.7229C124.529 52.035 124.724 54.9732 125.082 57.5222C125.346 59.404 125.481 61.1337 125.303 63.009" stroke="#E8E8E8" stroke-width="9" stroke-linecap="round"/>
<path d="M39.9729 42.7645C27.8079 43.7576 15.4199 51.2646 12.2654 63.6818C10.4542 70.8112 13.4114 76.2921 19.1397 80.5418C24.3055 84.3741 30.0403 86.1044 36.1889 87.4161" stroke="#E8E8E8" stroke-width="9" stroke-linecap="round"/>
<path d="M41.8649 124.121C45.2041 131.3 54.9969 133.756 61.9623 135.137C69.0084 136.534 76.2983 136.85 83.258 138.69C86.5811 139.568 89.2271 140.812 88.8499 144.66C88.3937 149.313 85.8547 153.744 83.0267 157.336C78.8074 162.696 73.5751 167.813 67.8906 171.611C62.2042 175.41 56.0878 176.344 49.4329 175.773" stroke="#E8E8E8" stroke-width="9" stroke-linecap="round"/>
<path d="M80.8405 109.174C84.0445 110.605 87.4817 111.377 90.6684 112.906C96.4777 115.693 101.633 119.835 105.962 124.584C108.082 126.908 112.769 131.586 111.428 135.273C110.544 137.705 107.978 139.141 106.004 140.582" stroke="#E8E8E8" stroke-width="9" stroke-linecap="round"/>
<path d="M143.277 149.853C149.346 146.818 155.511 143.968 162.281 142.894C166.721 142.19 171.425 142.043 175.767 143.388C181.893 145.286 186.957 149.825 189.642 155.634C191.415 159.471 191.914 163.747 190.598 167.827C189.05 172.629 185.597 176.522 182.41 180.282C180.091 183.019 177.396 185.724 176.03 189.122C175.134 191.352 175.65 193.058 176.009 195.261" stroke="#E8E8E8" stroke-width="9" stroke-linecap="round"/>
<path d="M210.443 203.775C219.081 201.595 227.697 199.328 236.322 197.1C242.75 195.44 249.095 193.645 255.368 191.456C263.567 188.595 271.767 184.593 280.448 183.383C284.149 182.868 288.08 183.094 291.537 184.592C295.585 186.346 297.304 189.61 297.613 193.894C297.896 197.83 297.284 201.917 295.942 205.625C295.162 207.779 293.885 210.136 292.494 211.974C289.832 215.491 291.492 212.704 288.773 215.695" stroke="#E8E8E8" stroke-width="9" stroke-linecap="round"/>
<path d="M147.103 194.272C139.05 194.968 129.16 203.891 133.359 212.665C136.789 219.834 146.762 223.244 153.787 225.196C157.405 226.201 160.936 226.766 164.642 226.58" stroke="#E8E8E8" stroke-width="9" stroke-linecap="round"/>
<path d="M113.256 255.196C108.877 254.649 103.91 252.935 100.914 249.555C96.6147 244.705 96.504 238.052 98.1617 232.136C98.9175 229.439 100.09 226.961 101.085 224.358C101.469 223.353 102.001 222.107 101.546 221.025C99.7913 216.846 91.99 217.015 88.3324 216.734" stroke="#E8E8E8" stroke-width="9" stroke-linecap="round"/>
<path d="M79.7168 183.195C73.4794 184.017 66.8769 187.999 64.4343 194.032C61.0261 202.452 65.4108 210.54 69.4601 217.691C72.0207 222.213 73.8343 227.486 72.161 232.7C70.9973 236.327 68.0285 237.733 64.6395 238.581" stroke="#E8E8E8" stroke-width="9" stroke-linecap="round"/>
<path d="M28.6385 194.887C29.1953 189.877 29.1712 186.097 26.3821 181.554C21.5317 173.653 13.661 167.897 4.63794 165.963" stroke="#E8E8E8" stroke-width="9" stroke-linecap="round"/>
<path d="M8.02258 135.501C17.411 136.008 27.4841 138.743 35.6814 143.347C39.1552 145.298 42.7177 147.907 43.1004 152.117" stroke="#E8E8E8" stroke-width="9" stroke-linecap="round"/>
<path d="M246.459 31.5759C248.318 31.1385 250.039 30.2397 251.908 29.7966C257.915 28.3722 264.339 28.9983 270.062 31.2701C273.871 32.7823 278.833 35.4857 279.431 40.0552C280.388 47.3705 272.965 53.5331 268.977 58.5983" stroke="#E8E8E8" stroke-width="9" stroke-linecap="round"/>
<path d="M294.999 75.112C299.159 73.1923 299.193 63.2317 295.639 60.7946C293.344 59.2212 289.68 60.6718 288.216 62.7128C284.278 68.2036 285.49 75.4271 285.992 81.6174" stroke="#E8E8E8" stroke-width="9" stroke-linecap="round"/>
<path d="M283.489 127.155C281.36 134.962 280.724 142.73 280.487 150.786C280.354 155.299 279.682 159.925 276.65 163.491C274.053 166.546 271.096 166.585 267.476 167.188" stroke="#E8E8E8" stroke-width="9" stroke-linecap="round"/>
<path d="M298.002 137.164C297.795 144.175 297.501 151.164 297.501 158.181" stroke="#E8E8E8" stroke-width="9" stroke-linecap="round"/>
<path d="M283.49 236.746C281.571 239.144 280.062 240.887 277.123 242.251C268.425 246.287 258.167 248.32 248.794 250.035C234.86 252.584 218.935 254.386 204.924 251.759" stroke="#E8E8E8" stroke-width="9" stroke-linecap="round"/>
<path d="M241.455 221.734C244.349 222.023 250.377 222.314 252.436 224.569C255.703 228.148 241.983 233.522 240.454 234.244" stroke="#E8E8E8" stroke-width="9" stroke-linecap="round"/>
<path d="M167.393 247.755C157.792 249.805 148.109 250.473 138.397 251.759C135.421 252.153 131.288 252.441 128.861 254.261" stroke="#E8E8E8" stroke-width="9" stroke-linecap="round"/>
<path d="M183.406 258.264C186.245 246.627 183.204 235.233 180.904 223.735" stroke="#E8E8E8" stroke-width="9" stroke-linecap="round"/>
<path d="M13.2652 216.229C13.2652 231.177 10.675 245.694 7.76062 260.266" stroke="#E8E8E8" stroke-width="9" stroke-linecap="round"/>
<path d="M17.7689 264.269C29.7935 273.488 46.4332 270.795 60.471 268.662C65.7776 267.855 72.6402 267.181 77.4296 264.38C79.6625 263.075 78.8196 260.85 78.8196 258.765" stroke="#E8E8E8" stroke-width="9" stroke-linecap="round"/>
<path d="M35.7838 256.262C30.1466 251.059 28.3427 242.896 28.8058 235.384C29.2987 227.388 32.5692 221.32 40.788 220.733" stroke="#E8E8E8" stroke-width="9" stroke-linecap="round"/>
<path d="M19.2701 119.149C18.4778 118.068 15.2484 112.143 17.7688 112.143" stroke="#E8E8E8" stroke-width="9" stroke-linecap="round"/>
<path d="M48.2942 111.642C50.4739 110.488 53.2019 110.514 55.4946 109.502C59.1193 107.901 61.8582 105.05 62.4726 101.022C63.9557 91.2998 57.9501 78.6455 52.2975 71.1086" stroke="#E8E8E8" stroke-width="9" stroke-linecap="round"/>
<path d="M30.2793 65.6041C30.6417 67.6576 30.5008 70.1522 32.7814 70.6083" stroke="#E8E8E8" stroke-width="9" stroke-linecap="round"/>
<path d="M24.2743 29.5742C33.0062 25.7777 46.1903 24.9454 55.2445 27.9061C64.99 31.0929 66.4305 40.1133 65.3084 49.0904" stroke="#E8E8E8" stroke-width="9" stroke-linecap="round"/>
<path d="M124.357 27.5726C136.183 27.3787 148.337 25.6935 160.109 27.2946C163.461 27.7504 166.608 28.3473 167.671 31.9651C168.801 35.8113 168.394 39.6781 168.394 43.5859" stroke="#E8E8E8" stroke-width="9" stroke-linecap="round"/>
<path d="M227.443 20.5667C228.964 28.9313 227.648 37.8127 228.277 46.2825C228.482 49.0405 228.639 52.5777 230.167 55.0397C231.935 57.8862 235.621 57.8172 238.452 58.5982" stroke="#E8E8E8" stroke-width="9" stroke-linecap="round"/>
<path d="M277.485 23.0688C283.295 22.5846 289.278 22.2837 294.888 24.292C301.625 26.7038 301.316 32.5462 301.505 38.5817" stroke="#E8E8E8" stroke-width="9" stroke-linecap="round"/>
<path d="M275.983 106.138C277.039 112.119 284.18 112.814 288.994 113.644" stroke="#E8E8E8" stroke-width="9" stroke-linecap="round"/>
</svg>
