<svg width="497" height="244" viewBox="0 0 497 244" fill="none" xmlns="http://www.w3.org/2000/svg">
<rect x="231.264" y="114.764" width="45" height="45" rx="5" transform="rotate(30 231.264 114.764)" fill="#1C84EA"/>
<rect x="292" y="98.6469" width="45" height="45" rx="5" transform="rotate(-15 292 98.6469)" fill="#1C84EA"/>
<rect x="446" y="105.989" width="45" height="45" rx="5" transform="rotate(-7.64761 446 105.989)" fill="#1C84EA"/>
<rect x="359.142" y="12" width="45" height="45" rx="5" transform="rotate(14.3353 359.142 12)" fill="#1C84EA"/>
<rect x="378.142" y="166" width="45" height="45" rx="5" transform="rotate(14.3353 378.142 166)" fill="#1C84EA"/>
<rect x="215.471" y="22.5" width="45" height="45" rx="5" transform="rotate(120 215.471 22.5)" fill="#1C84EA"/>
<rect x="122.093" y="64.2355" width="45" height="45" rx="5" transform="rotate(75 122.093 64.2355)" fill="#1C84EA"/>
<rect x="178.6" y="188" width="45" height="45" rx="5" transform="rotate(82.3524 178.6 188)" fill="#1C84EA"/>
<rect x="314.74" y="200.142" width="45" height="45" rx="5" transform="rotate(104.335 314.74 200.142)" fill="#1C84EA"/>
<rect x="54.7394" y="150.377" width="45" height="45" rx="5" transform="rotate(104.335 54.7394 150.377)" fill="#1C84EA"/>
</svg>
